<?xml version="1.0" encoding="utf-8"?>
<!-- Generator: Adobe Illustrator 24.1.2, SVG Export Plug-In . SVG Version: 6.00 Build 0)  -->
<svg version="1.1" xmlns="http://www.w3.org/2000/svg" xmlns:xlink="http://www.w3.org/1999/xlink" x="0px" y="0px"
	 viewBox="0 0 383.98 301.71" style="enable-background:new 0 0 383.98 301.71;" xml:space="preserve">
<g id="Capa_1">
	<path d="M104.59,96.1H13.5l4.53-20.3L77,21.91H30.02l4.45-20.3h91.1l-4.53,20.3L56.89,75.8h52.01L104.59,96.1z M146.22,96.1
		L167.3,1.61h-30.15L116.07,96.1H146.22z M164.14,39.86c1.87-6.12,4.66-11.9,8.38-17.34c3.72-5.44,8.29-9.99,13.73-13.66
		c5.44-3.67,10.79-6.07,16.05-7.19C207.56,0.56,212.96,0,218.51,0c14.39,0,24.96,3.86,31.71,11.57c6.75,7.71,10.12,17.2,10.12,28.46
		c0,4.34-0.62,9.29-1.87,14.86c-1.25,5.57-3.65,11.32-7.22,17.27c-3.57,5.95-8.2,11-13.89,15.15c-5.69,4.15-11.16,6.92-16.4,8.31
		c-5.24,1.4-10.81,2.09-16.69,2.09c-13.49,0-24.02-3.42-31.58-10.25c-7.56-6.83-11.34-16.41-11.34-28.75
		C161.34,52.27,162.27,45.99,164.14,39.86z M190.02,59.43c0,4.81,1.42,8.81,4.25,11.99c2.84,3.18,6.77,4.77,11.79,4.77
		c5.63,0,10.41-2.13,14.34-6.38s6.8-9.61,8.6-16.08c1.8-6.47,2.71-11.08,2.71-13.83c0-6.06-1.54-10.63-4.61-13.73
		c-3.07-3.09-6.99-4.64-11.76-4.64c-5.33,0-9.92,1.94-13.76,5.83c-3.85,3.89-6.74,9.07-8.67,15.53
		C190.99,49.36,190.02,54.87,190.02,59.43z M282.56,96.1l11.73-54.91h0.26l23.4,54.91h27.33l20.3-94.49h-27.46l-11.86,55.04H326
		L302.73,1.61H275.4L255.1,96.1H282.56z M22.8,198.1h30.15l15.9-71.28h28.78l5.13-23.2H11.82l-5.18,23.2h32.06L22.8,198.1z
		 M93.31,198.1h30.08l21.15-94.49h-30.15L93.31,198.1z M176.96,159.81h41.26l4.19-19.14h-41.17l3.77-16.89h42.05l4.38-20.17h-72.08
		l-21.08,94.49h30.15L176.96,159.81z M273.08,103.61h-30.15l-21.08,94.49H252L273.08,103.61z M345.57,103.61l-35.64,35.64
		l-0.07-0.32l7.82-35.32h-29.8l-21.05,94.49h29.97l5.2-23.2l20.63-17.72l17.79,40.93h31.58l-28.94-58.85l40.93-35.64H345.57z
		 M0,299.96l28.36,0.14l5.83-26.43H5.87L0,299.96z M147.25,236.61c-1.07-9.8-5.06-17.68-11.96-23.65c-6.9-5.97-16.3-8.96-28.2-8.96
		c-11.47,0-21.31,2.67-29.52,7.99c-8.21,5.33-14.45,12.66-18.72,21.98c-4.28,9.32-6.41,18.61-6.41,27.84c0,12.08,3.6,21.74,10.8,29
		c7.2,7.26,17.61,10.89,31.23,10.89c13.06,0,23.66-3.33,31.81-9.99c8.14-6.66,13.63-14.87,16.47-24.62l-27.33-4.25
		c-2.32,5.89-5.02,10.25-8.09,13.08c-3.07,2.84-6.84,4.25-11.31,4.25c-4.86,0-8.55-1.58-11.09-4.74c-2.54-3.16-3.8-7.08-3.8-11.76
		c0-6.14,1.23-12.46,3.71-18.95c2.47-6.49,5.75-11.31,9.83-14.47c4.08-3.16,8.27-4.74,12.57-4.74c3.31,0,6.34,1.12,9.09,3.35
		c2.75,2.23,4.13,5.65,4.13,10.25v0.52L147.25,236.61z M248.09,258.88c-1.25,5.57-3.65,11.32-7.22,17.27
		c-3.57,5.95-8.2,11-13.89,15.15c-5.69,4.15-11.16,6.92-16.4,8.31c-5.24,1.4-10.81,2.09-16.69,2.09c-13.49,0-24.02-3.42-31.58-10.25
		c-7.56-6.83-11.34-16.41-11.34-28.75c0-6.45,0.93-12.73,2.8-18.85s4.66-11.9,8.38-17.34c3.72-5.44,8.29-9.99,13.73-13.66
		c5.44-3.67,10.79-6.07,16.05-7.19c5.26-1.12,10.67-1.68,16.21-1.68c14.39,0,24.96,3.86,31.71,11.57
		c6.75,7.71,10.12,17.2,10.12,28.46C249.96,248.37,249.33,253.32,248.09,258.88z M221.34,243.9c0-6.06-1.54-10.63-4.61-13.73
		c-3.07-3.09-6.99-4.64-11.76-4.64c-5.33,0-9.92,1.94-13.76,5.83c-3.85,3.89-6.74,9.07-8.67,15.53c-1.93,6.47-2.9,11.98-2.9,16.53
		c0,4.81,1.42,8.81,4.25,11.99c2.84,3.18,6.77,4.77,11.79,4.77c5.63,0,10.41-2.13,14.34-6.38s6.8-9.61,8.6-16.08
		C220.44,251.25,221.34,246.65,221.34,243.9z M332.69,205.41l-26.11,55.17v-55.17h-11.25h-7.46h-22.69L244.1,299.9h30.08
		l13.69-61.18v61.38h18.7l28.78-60.82l-13.57,60.82h30.08l21.15-94.49l-21.63-0.2H332.69z"/>
</g>
<g id="Capa_2">
</g>
</svg>
