<?xml version="1.0" encoding="utf-8"?>
<!-- Generator: Adobe Illustrator 24.1.2, SVG Export Plug-In . SVG Version: 6.00 Build 0)  -->
<svg version="1.1" id="Capa_1" xmlns="http://www.w3.org/2000/svg" xmlns:xlink="http://www.w3.org/1999/xlink" x="0px" y="0px"
	 viewBox="0 0 200 200" style="enable-background:new 0 0 200 200;" xml:space="preserve">
<style type="text/css">
	.st0{fill:#38A8E0;}
	.st1{fill:#FFFFFF;}
</style>
<circle class="st0" cx="100" cy="100" r="100"/>
<path class="st1" d="M161.52,61.84c-4.53,2.01-9.39,3.36-14.5,3.98c5.21-3.12,9.21-8.07,11.1-13.97
	c-4.88,2.89-10.28,4.99-16.03,6.13c-4.6-4.91-11.17-7.97-18.43-7.97c-13.94,0-25.25,11.3-25.25,25.24c0,1.98,0.22,3.91,0.65,5.75
	c-20.98-1.05-39.58-11.1-52.03-26.38c-2.17,3.73-3.42,8.06-3.42,12.69c0,8.76,4.46,16.49,11.23,21.01
	c-4.14-0.13-8.03-1.27-11.43-3.16c0,0.11,0,0.21,0,0.32c0,12.23,8.7,22.43,20.25,24.75c-2.12,0.58-4.35,0.89-6.65,0.89
	c-1.63,0-3.21-0.16-4.75-0.45C55.48,120.7,64.8,128,75.85,128.2c-8.64,6.77-19.53,10.81-31.35,10.81c-2.04,0-4.05-0.12-6.02-0.35
	C49.65,145.82,62.92,150,77.17,150c46.43,0,71.83-38.47,71.83-71.83c0-1.09-0.02-2.18-0.07-3.27
	C153.86,71.35,158.14,66.9,161.52,61.84z"/>
</svg>
