<?xml version="1.0" encoding="utf-8"?>
<!-- Generator: Adobe Illustrator 24.1.2, SVG Export Plug-In . SVG Version: 6.00 Build 0)  -->
<svg version="1.1" id="Capa_1" xmlns="http://www.w3.org/2000/svg" xmlns:xlink="http://www.w3.org/1999/xlink" x="0px" y="0px"
	 viewBox="0 0 200 200" style="enable-background:new 0 0 200 200;" xml:space="preserve">
<style type="text/css">
	.st0{enable-background:new    ;}
	.st1{fill:url(#SVGID_1_);enable-background:new    ;}
	.st2{fill:#FFFFFF;}
	.st3{fill:#FFFFFF;stroke:#000000;stroke-width:0.1617;stroke-miterlimit:6.8798;}
	.st4{fill:#2EBD59;}
</style>
<g>
	<path class="st4" d="M100,0C44.77,0,0,44.77,0,100s44.77,100,100,100s100-44.77,100-100C200,44.78,155.23,0.01,100,0z
		 M145.86,144.22c-1.79,2.95-5.64,3.87-8.57,2.07c-23.48-14.35-53.04-17.59-87.85-9.64c-3.36,0.77-6.7-1.33-7.47-4.69
		c-0.77-3.36,1.32-6.7,4.69-7.47c38.09-8.7,70.77-4.95,97.13,11.15C146.73,137.46,147.66,141.29,145.86,144.22z M158.1,117
		c-2.26,3.67-7.06,4.82-10.73,2.57c-26.87-16.52-67.85-21.3-99.65-11.65c-4.12,1.25-8.47-1.08-9.73-5.19
		c-1.24-4.12,1.08-8.47,5.2-9.72c36.32-11.02,81.47-5.68,112.33,13.29C159.19,108.54,160.35,113.34,158.1,117L158.1,117z
		 M159.15,88.65c-32.23-19.14-85.4-20.9-116.18-11.57c-4.94,1.5-10.17-1.29-11.66-6.23c-1.49-4.94,1.29-10.17,6.24-11.67
		c35.33-10.72,94.04-8.65,131.15,13.37c4.44,2.64,5.9,8.38,3.27,12.81C169.33,89.82,163.58,91.29,159.15,88.65z"/>
</g>
</svg>
