<?xml version="1.0" encoding="utf-8"?>
<!-- Generator: Adobe Illustrator 24.1.2, SVG Export Plug-In . SVG Version: 6.00 Build 0)  -->
<svg version="1.1" id="Capa_1" xmlns="http://www.w3.org/2000/svg" xmlns:xlink="http://www.w3.org/1999/xlink" x="0px" y="0px"
	 viewBox="0 0 200 200" style="enable-background:new 0 0 200 200;" xml:space="preserve">
<style type="text/css">
	.st0{enable-background:new    ;}
	.st1{fill:url(#SVGID_1_);enable-background:new    ;}
	.st2{fill:#FFFFFF;}
	.st3{fill:#FFFFFF;stroke:#000000;stroke-width:0.1617;stroke-miterlimit:6.8798;}
	.st4{fill:#2EBD59;}
</style>
<circle class="st0" cx="100" cy="100" r="100"/>
<g>
	<path class="st3" d="M52.84,53h0.29c2.22,2.55,4.74,4.81,7.11,7.26l16.12,16.12v0.29c-7.8,7.77-15.57,15.61-23.37,23.37
		c-7.84-7.8-15.64-15.64-23.48-23.45c0.4-0.77,1.17-1.28,1.75-1.9C38.43,67.44,45.73,60.29,52.84,53z"/>
	<path class="st3" d="M99.87,53h0.29c0.22,0.33,0.44,0.62,0.73,0.91c7.55,7.47,14.99,15.06,22.61,22.5
		c-0.18,0.44-0.58,0.73-0.91,1.06c-7.55,7.51-15.06,15.06-22.61,22.57c-7.88-7.77-15.61-15.68-23.52-23.41
		C84.12,68.64,92.18,60.95,99.87,53z"/>
	<path class="st3" d="M146.91,53h0.29c1.46,1.75,3.17,3.25,4.74,4.89c5.91,5.91,11.78,11.78,17.68,17.68
		c0.29,0.33,0.77,0.62,0.88,1.09c-7.91,7.69-15.57,15.68-23.52,23.37l-22.42-22.42c-0.36-0.4-0.84-0.69-1.02-1.2
		c3.97-3.87,7.84-7.84,11.78-11.74C139.18,60.77,143.12,56.97,146.91,53z"/>
	<path class="st3" d="M76.79,123.19c7.69-7.69,15.42-15.39,23.12-23.12l0.33,0.15c7.73,7.77,15.46,15.53,23.26,23.23
		c-0.25,0.58-0.8,0.91-1.2,1.39c-5.61,5.58-11.23,11.23-16.85,16.81c-1.82,1.75-3.57,3.72-5.43,5.36c-2.66-2.41-5.1-5.1-7.69-7.58
		c-5.25-5.25-10.46-10.5-15.75-15.72C76.65,123.55,76.72,123.34,76.79,123.19L76.79,123.19z"/>
</g>
</svg>
